<svg width="149" height="65" viewBox="0 0 149 65" fill="none" xmlns="http://www.w3.org/2000/svg">
<circle cx="30" cy="13" r="13" fill="#00BD1C"/>
<path d="M18.784 19.44V24.432H12.768V42H6.496V24.432H0.544V19.44H18.784ZM27.3765 27.216C28.0805 26.192 28.9338 25.3813 29.9365 24.784C30.9392 24.1867 32.0165 23.888 33.1685 23.888V30.576H31.4085C30.0432 30.576 29.0298 30.8427 28.3685 31.376C27.7072 31.9093 27.3765 32.8373 27.3765 34.16V42H21.1045V24.048H27.3765V27.216ZM34.393 33.008C34.393 31.152 34.7237 29.5307 35.385 28.144C36.0677 26.7573 36.985 25.6907 38.137 24.944C39.3103 24.1973 40.6117 23.824 42.041 23.824C43.2783 23.824 44.345 24.0693 45.241 24.56C46.137 25.0507 46.8303 25.712 47.321 26.544V24.048H53.593V42H47.321V39.504C46.8303 40.336 46.1263 40.9973 45.209 41.488C44.313 41.9787 43.257 42.224 42.041 42.224C40.6117 42.224 39.3103 41.8507 38.137 41.104C36.985 40.3573 36.0677 39.2907 35.385 37.904C34.7237 36.496 34.393 34.864 34.393 33.008ZM47.321 33.008C47.321 31.856 47.001 30.9493 46.361 30.288C45.7423 29.6267 44.9743 29.296 44.057 29.296C43.1183 29.296 42.3397 29.6267 41.721 30.288C41.1023 30.928 40.793 31.8347 40.793 33.008C40.793 34.16 41.1023 35.0773 41.721 35.76C42.3397 36.4213 43.1183 36.752 44.057 36.752C44.9743 36.752 45.7423 36.4213 46.361 35.76C47.001 35.0987 47.321 34.1813 47.321 33.008ZM65.775 36.08L69.135 24.048H75.823L69.647 42H61.839L55.663 24.048H62.351L65.775 36.08ZM95.1003 32.816C95.1003 33.3067 95.0683 33.7973 95.0043 34.288H83.1323C83.1963 35.2693 83.4629 36.0053 83.9323 36.496C84.4229 36.9653 85.0416 37.2 85.7883 37.2C86.8336 37.2 87.5803 36.7307 88.0283 35.792H94.7163C94.4389 37.0293 93.8949 38.1387 93.0843 39.12C92.2949 40.08 91.2923 40.8373 90.0763 41.392C88.8603 41.9467 87.5163 42.224 86.0443 42.224C84.2736 42.224 82.6949 41.8507 81.3083 41.104C79.9429 40.3573 78.8656 39.2907 78.0763 37.904C77.3083 36.5173 76.9243 34.8853 76.9243 33.008C76.9243 31.1307 77.3083 29.5093 78.0763 28.144C78.8443 26.7573 79.9109 25.6907 81.2763 24.944C82.6629 24.1973 84.2523 23.824 86.0443 23.824C87.8149 23.824 89.3829 24.1867 90.7483 24.912C92.1136 25.6373 93.1803 26.6827 93.9483 28.048C94.7163 29.392 95.1003 30.9813 95.1003 32.816ZM88.7003 31.248C88.7003 30.48 88.4443 29.8827 87.9323 29.456C87.4203 29.008 86.7803 28.784 86.0123 28.784C85.2443 28.784 84.6149 28.9973 84.1243 29.424C83.6336 29.8293 83.3136 30.4373 83.1643 31.248H88.7003ZM103.939 18.32V42H97.667V18.32H103.939Z" fill="#242424"/>
<path d="M128.407 42H122.135L113.783 29.392V42H107.511V19.44H113.783L122.135 32.208V19.44H128.407V42ZM147.276 19.44V24.432H138.252V28.4H144.908V33.168H138.252V42H131.98V19.44H147.276Z" fill="#00BD1C"/>
<path d="M12.068 52.355V57.228C12.068 57.8073 12.2183 58.2437 12.519 58.537C12.827 58.8303 13.2523 58.977 13.795 58.977C14.345 58.977 14.7703 58.8303 15.071 58.537C15.379 58.2437 15.533 57.8073 15.533 57.228V52.355H16.787V57.206C16.787 57.8293 16.6513 58.3573 16.38 58.79C16.1087 59.2227 15.7457 59.5453 15.291 59.758C14.8363 59.9707 14.334 60.077 13.784 60.077C13.234 60.077 12.7317 59.9707 12.277 59.758C11.8297 59.5453 11.474 59.2227 11.21 58.79C10.946 58.3573 10.814 57.8293 10.814 57.206V52.355H12.068ZM25.7567 53.84C26.2334 53.84 26.6587 53.939 27.0327 54.137C27.4141 54.335 27.7111 54.6283 27.9237 55.017C28.1437 55.4057 28.2537 55.875 28.2537 56.425V60H27.0107V56.612C27.0107 56.0693 26.8751 55.655 26.6037 55.369C26.3324 55.0757 25.9621 54.929 25.4927 54.929C25.0234 54.929 24.6494 55.0757 24.3707 55.369C24.0994 55.655 23.9637 56.0693 23.9637 56.612V60H22.7207V56.612C22.7207 56.0693 22.5851 55.655 22.3137 55.369C22.0424 55.0757 21.6721 54.929 21.2027 54.929C20.7334 54.929 20.3594 55.0757 20.0807 55.369C19.8094 55.655 19.6737 56.0693 19.6737 56.612V60H18.4197V53.939H19.6737V54.632C19.8791 54.3827 20.1394 54.1883 20.4547 54.049C20.7701 53.9097 21.1074 53.84 21.4667 53.84C21.9507 53.84 22.3834 53.9427 22.7647 54.148C23.1461 54.3533 23.4394 54.6503 23.6447 55.039C23.8281 54.6723 24.1141 54.3827 24.5027 54.17C24.8914 53.95 25.3094 53.84 25.7567 53.84ZM31.1034 54.819C31.2867 54.511 31.5287 54.2727 31.8294 54.104C32.1374 53.928 32.5004 53.84 32.9184 53.84V55.138H32.5994C32.1081 55.138 31.7341 55.2627 31.4774 55.512C31.2281 55.7613 31.1034 56.194 31.1034 56.81V60H29.8494V53.939H31.1034V54.819ZM33.6531 56.942C33.6531 56.3333 33.7778 55.7943 34.0271 55.325C34.2838 54.8557 34.6284 54.4927 35.0611 54.236C35.5011 53.972 35.9851 53.84 36.5131 53.84C36.9898 53.84 37.4041 53.9353 37.7561 54.126C38.1154 54.3093 38.4014 54.5403 38.6141 54.819V53.939H39.8791V60H38.6141V59.098C38.4014 59.384 38.1118 59.6223 37.7451 59.813C37.3784 60.0037 36.9604 60.099 36.4911 60.099C35.9704 60.099 35.4938 59.967 35.0611 59.703C34.6284 59.4317 34.2838 59.0577 34.0271 58.581C33.7778 58.097 33.6531 57.5507 33.6531 56.942ZM38.6141 56.964C38.6141 56.546 38.5261 56.183 38.3501 55.875C38.1814 55.567 37.9578 55.3323 37.6791 55.171C37.4004 55.0097 37.0998 54.929 36.7771 54.929C36.4544 54.929 36.1538 55.0097 35.8751 55.171C35.5964 55.325 35.3691 55.556 35.1931 55.864C35.0244 56.1647 34.9401 56.524 34.9401 56.942C34.9401 57.36 35.0244 57.7267 35.1931 58.042C35.3691 58.3573 35.5964 58.5993 35.8751 58.768C36.1611 58.9293 36.4618 59.01 36.7771 59.01C37.0998 59.01 37.4004 58.9293 37.6791 58.768C37.9578 58.6067 38.1814 58.372 38.3501 58.064C38.5261 57.7487 38.6141 57.382 38.6141 56.964ZM44.6612 53.84C45.1232 53.84 45.5338 53.939 45.8932 54.137C46.2598 54.335 46.5458 54.6283 46.7512 55.017C46.9638 55.4057 47.0702 55.875 47.0702 56.425V60H45.8272V56.612C45.8272 56.0693 45.6915 55.655 45.4202 55.369C45.1488 55.0757 44.7785 54.929 44.3092 54.929C43.8398 54.929 43.4658 55.0757 43.1872 55.369C42.9158 55.655 42.7802 56.0693 42.7802 56.612V60H41.5262V51.86H42.7802V54.643C42.9928 54.3863 43.2605 54.1883 43.5832 54.049C43.9132 53.9097 44.2725 53.84 44.6612 53.84ZM57.8081 60H56.5541L52.7811 54.291V60H51.5271V52.344H52.7811L56.5541 58.042V52.344H57.8081V60ZM62.0839 60.099C61.5119 60.099 60.9949 59.9707 60.5329 59.714C60.0709 59.45 59.7079 59.0833 59.4439 58.614C59.1799 58.1373 59.0479 57.5873 59.0479 56.964C59.0479 56.348 59.1835 55.8017 59.4549 55.325C59.7262 54.8483 60.0965 54.4817 60.5659 54.225C61.0352 53.9683 61.5595 53.84 62.1389 53.84C62.7182 53.84 63.2425 53.9683 63.7119 54.225C64.1812 54.4817 64.5515 54.8483 64.8229 55.325C65.0942 55.8017 65.2299 56.348 65.2299 56.964C65.2299 57.58 65.0905 58.1263 64.8119 58.603C64.5332 59.0797 64.1519 59.45 63.6679 59.714C63.1912 59.9707 62.6632 60.099 62.0839 60.099ZM62.0839 59.01C62.4065 59.01 62.7072 58.933 62.9859 58.779C63.2719 58.625 63.5029 58.394 63.6789 58.086C63.8549 57.778 63.9429 57.404 63.9429 56.964C63.9429 56.524 63.8585 56.1537 63.6899 55.853C63.5212 55.545 63.2975 55.314 63.0189 55.16C62.7402 55.006 62.4395 54.929 62.1169 54.929C61.7942 54.929 61.4935 55.006 61.2149 55.16C60.9435 55.314 60.7272 55.545 60.5659 55.853C60.4045 56.1537 60.3239 56.524 60.3239 56.964C60.3239 57.6167 60.4889 58.1227 60.8189 58.482C61.1562 58.834 61.5779 59.01 62.0839 59.01ZM74.6095 53.939L72.7285 60H71.4085L70.1875 55.523L68.9665 60H67.6465L65.7545 53.939H67.0305L68.2955 58.812L69.5825 53.939H70.8915L72.1235 58.79L73.3775 53.939H74.6095ZM84.5091 52.355V60H83.2551V56.656H79.6581V60H78.4041V52.355H79.6581V55.633H83.2551V52.355H84.5091ZM85.742 56.942C85.742 56.3333 85.8666 55.7943 86.116 55.325C86.3726 54.8557 86.7173 54.4927 87.15 54.236C87.59 53.972 88.074 53.84 88.602 53.84C89.0786 53.84 89.493 53.9353 89.845 54.126C90.2043 54.3093 90.4903 54.5403 90.703 54.819V53.939H91.968V60H90.703V59.098C90.4903 59.384 90.2006 59.6223 89.834 59.813C89.4673 60.0037 89.0493 60.099 88.58 60.099C88.0593 60.099 87.5826 59.967 87.15 59.703C86.7173 59.4317 86.3726 59.0577 86.116 58.581C85.8666 58.097 85.742 57.5507 85.742 56.942ZM90.703 56.964C90.703 56.546 90.615 56.183 90.439 55.875C90.2703 55.567 90.0466 55.3323 89.768 55.171C89.4893 55.0097 89.1886 54.929 88.866 54.929C88.5433 54.929 88.2426 55.0097 87.964 55.171C87.6853 55.325 87.458 55.556 87.282 55.864C87.1133 56.1647 87.029 56.524 87.029 56.942C87.029 57.36 87.1133 57.7267 87.282 58.042C87.458 58.3573 87.6853 58.5993 87.964 58.768C88.25 58.9293 88.5506 59.01 88.866 59.01C89.1886 59.01 89.4893 58.9293 89.768 58.768C90.0466 58.6067 90.2703 58.372 90.439 58.064C90.615 57.7487 90.703 57.382 90.703 56.964ZM95.958 58.878L97.674 53.939H99.005L96.695 60H95.199L92.9 53.939H94.242L95.958 58.878ZM105.508 56.821C105.508 57.0483 105.493 57.2537 105.464 57.437H100.833C100.87 57.921 101.049 58.3097 101.372 58.603C101.695 58.8963 102.091 59.043 102.56 59.043C103.235 59.043 103.711 58.7607 103.99 58.196H105.343C105.16 58.7533 104.826 59.2117 104.342 59.571C103.865 59.923 103.271 60.099 102.56 60.099C101.981 60.099 101.46 59.9707 100.998 59.714C100.543 59.45 100.184 59.0833 99.9199 58.614C99.6633 58.1373 99.5349 57.5873 99.5349 56.964C99.5349 56.3407 99.6596 55.7943 99.9089 55.325C100.166 54.8483 100.521 54.4817 100.976 54.225C101.438 53.9683 101.966 53.84 102.56 53.84C103.132 53.84 103.642 53.9647 104.089 54.214C104.536 54.4633 104.885 54.8153 105.134 55.27C105.383 55.7173 105.508 56.2343 105.508 56.821ZM104.199 56.425C104.192 55.963 104.027 55.5927 103.704 55.314C103.381 55.0353 102.982 54.896 102.505 54.896C102.072 54.896 101.702 55.0353 101.394 55.314C101.086 55.5853 100.903 55.9557 100.844 56.425H104.199ZM114.098 52.355V53.378H110.853V55.633H113.383V56.656H110.853V60H109.599V52.355H114.098ZM120.75 53.939V60H119.496V59.285C119.298 59.5343 119.037 59.7323 118.715 59.879C118.399 60.0183 118.062 60.088 117.703 60.088C117.226 60.088 116.797 59.989 116.416 59.791C116.042 59.593 115.745 59.2997 115.525 58.911C115.312 58.5223 115.206 58.053 115.206 57.503V53.939H116.449V57.316C116.449 57.8587 116.584 58.2767 116.856 58.57C117.127 58.856 117.497 58.999 117.967 58.999C118.436 58.999 118.806 58.856 119.078 58.57C119.356 58.2767 119.496 57.8587 119.496 57.316V53.939H120.75ZM125.462 53.84C125.939 53.84 126.364 53.939 126.738 54.137C127.119 54.335 127.416 54.6283 127.629 55.017C127.842 55.4057 127.948 55.875 127.948 56.425V60H126.705V56.612C126.705 56.0693 126.569 55.655 126.298 55.369C126.027 55.0757 125.656 54.929 125.187 54.929C124.718 54.929 124.344 55.0757 124.065 55.369C123.794 55.655 123.658 56.0693 123.658 56.612V60H122.404V53.939H123.658V54.632C123.863 54.3827 124.124 54.1883 124.439 54.049C124.762 53.9097 125.103 53.84 125.462 53.84Z" fill="#242424"/>
</svg>
