<svg width="140" height="59" viewBox="0 0 140 59" fill="none" xmlns="http://www.w3.org/2000/svg">
<circle cx="30" cy="13" r="13" fill="#242424"/>
<path d="M1 19.2955V14.7273H20.6705V19.2955H13.6136V38H8.06818V19.2955H1ZM21.6051 38V20.5455H27.0028V23.7273H27.1847C27.5028 22.5758 28.0218 21.7197 28.7415 21.1591C29.4612 20.5909 30.2983 20.3068 31.2528 20.3068C31.5104 20.3068 31.7756 20.3258 32.0483 20.3636C32.321 20.3939 32.5748 20.4432 32.8097 20.5114V25.3409C32.5445 25.25 32.196 25.178 31.7642 25.125C31.34 25.072 30.9612 25.0455 30.6278 25.0455C29.9688 25.0455 29.3741 25.1932 28.8438 25.4886C28.321 25.7765 27.9081 26.1818 27.6051 26.7045C27.3097 27.2197 27.1619 27.8258 27.1619 28.5227V38H21.6051ZM39.3381 38.2955C38.2244 38.2955 37.2358 38.1098 36.3722 37.7386C35.5161 37.3598 34.8381 36.7917 34.3381 36.0341C33.8456 35.2689 33.5994 34.3106 33.5994 33.1591C33.5994 32.1894 33.7699 31.3712 34.1108 30.7045C34.4517 30.0379 34.9214 29.4962 35.5199 29.0795C36.1184 28.6629 36.8078 28.3485 37.5881 28.1364C38.3684 27.9167 39.2017 27.7689 40.0881 27.6932C41.0805 27.6023 41.8797 27.5076 42.4858 27.4091C43.0919 27.303 43.5313 27.1553 43.804 26.9659C44.0843 26.7689 44.2244 26.4924 44.2244 26.1364V26.0795C44.2244 25.4962 44.0237 25.0455 43.6222 24.7273C43.2206 24.4091 42.679 24.25 41.9972 24.25C41.2623 24.25 40.6714 24.4091 40.2244 24.7273C39.7775 25.0455 39.4934 25.4848 39.3722 26.0455L34.2472 25.8636C34.3987 24.803 34.7888 23.8561 35.4176 23.0227C36.054 22.1818 36.9252 21.5227 38.0312 21.0455C39.1449 20.5606 40.482 20.3182 42.0426 20.3182C43.1563 20.3182 44.1828 20.4508 45.1222 20.7159C46.0616 20.9735 46.8797 21.3523 47.5767 21.8523C48.2737 22.3447 48.8116 22.9508 49.1903 23.6705C49.5767 24.3902 49.7699 25.2121 49.7699 26.1364V38H44.5426V35.5682H44.4062C44.0956 36.1591 43.6979 36.6591 43.2131 37.0682C42.7358 37.4773 42.1714 37.7841 41.5199 37.9886C40.8759 38.1932 40.1487 38.2955 39.3381 38.2955ZM41.054 34.6591C41.6525 34.6591 42.1903 34.5379 42.6676 34.2955C43.1525 34.053 43.5388 33.7197 43.8267 33.2955C44.1146 32.8636 44.2585 32.3636 44.2585 31.7955V30.1364C44.0994 30.2197 43.9063 30.2955 43.679 30.3636C43.4593 30.4318 43.2169 30.4962 42.9517 30.5568C42.6866 30.6174 42.4138 30.6705 42.1335 30.7159C41.8532 30.7614 41.5843 30.803 41.3267 30.8409C40.804 30.9242 40.357 31.053 39.9858 31.2273C39.6222 31.4015 39.3419 31.6288 39.1449 31.9091C38.9555 32.1818 38.8608 32.5076 38.8608 32.8864C38.8608 33.4621 39.0653 33.9015 39.4744 34.2045C39.8911 34.5076 40.4176 34.6591 41.054 34.6591ZM69.4744 20.5455L63.4858 38H57.1222L51.1449 20.5455H56.9972L60.2131 32.5682H60.3949L63.6222 20.5455H69.4744ZM79.2017 38.3295C77.3759 38.3295 75.8002 37.9697 74.4744 37.25C73.1563 36.5227 72.1411 35.4886 71.429 34.1477C70.7244 32.7992 70.3722 31.197 70.3722 29.3409C70.3722 27.5379 70.7282 25.9621 71.4403 24.6136C72.1525 23.2576 73.1562 22.2045 74.4517 21.4545C75.7472 20.697 77.2737 20.3182 79.0312 20.3182C80.2737 20.3182 81.41 20.5114 82.4403 20.8977C83.4706 21.2841 84.3608 21.8561 85.1108 22.6136C85.8608 23.3712 86.4441 24.3068 86.8608 25.4205C87.2775 26.5265 87.4858 27.7955 87.4858 29.2273V30.6136H72.3153V27.3864H82.3153C82.3078 26.7955 82.1676 26.2689 81.8949 25.8068C81.6222 25.3447 81.2472 24.9848 80.7699 24.7273C80.3002 24.4621 79.7585 24.3295 79.1449 24.3295C78.5237 24.3295 77.9669 24.4697 77.4744 24.75C76.982 25.0227 76.5919 25.3977 76.304 25.875C76.0161 26.3447 75.8646 26.8788 75.8494 27.4773V30.7614C75.8494 31.4735 75.9896 32.0985 76.2699 32.6364C76.5502 33.1667 76.9479 33.5795 77.4631 33.875C77.9782 34.1705 78.5919 34.3182 79.304 34.3182C79.7964 34.3182 80.2434 34.25 80.6449 34.1136C81.0464 33.9773 81.3911 33.7765 81.679 33.5114C81.9669 33.2462 82.1828 32.9205 82.3267 32.5341L87.429 32.6818C87.2169 33.8258 86.7509 34.822 86.0312 35.6705C85.3191 36.5114 84.3835 37.1667 83.2244 37.6364C82.0653 38.0985 80.7244 38.3295 79.2017 38.3295ZM95.8807 14.7273V38H90.3239V14.7273H95.8807Z" fill="white"/>
<path d="M119.224 14.7273V38H114.452L105.19 24.5682H105.043V38H99.4176V14.7273H104.259L113.418 28.1364H113.611V14.7273H119.224ZM122.761 38V14.7273H138.648V19.2955H128.386V24.0682H137.636V28.6477H128.386V38H122.761Z" fill="#242424"/>
<path d="M19.0234 49H20.2344V54.2617C20.2344 54.8216 20.1029 55.3177 19.8398 55.75C19.5768 56.1797 19.207 56.5182 18.7305 56.7656C18.2539 57.0104 17.6953 57.1328 17.0547 57.1328C16.4167 57.1328 15.8594 57.0104 15.3828 56.7656C14.9063 56.5182 14.5365 56.1797 14.2734 55.75C14.0104 55.3177 13.8789 54.8216 13.8789 54.2617V49H15.0859V54.1641C15.0859 54.526 15.1654 54.8477 15.3242 55.1289C15.4857 55.4102 15.7135 55.6315 16.0078 55.793C16.3021 55.9518 16.651 56.0312 17.0547 56.0312C17.4609 56.0312 17.8112 55.9518 18.1055 55.793C18.4023 55.6315 18.6289 55.4102 18.7852 55.1289C18.944 54.8477 19.0234 54.526 19.0234 54.1641V49ZM21.8955 57V51H23.0166V51.9766H23.0908C23.2158 51.6458 23.4202 51.388 23.7041 51.2031C23.988 51.0156 24.3278 50.9219 24.7236 50.9219C25.1247 50.9219 25.4606 51.0156 25.7314 51.2031C26.0049 51.3906 26.2067 51.6484 26.3369 51.9766H26.3994C26.5426 51.6562 26.7705 51.401 27.083 51.2109C27.3955 51.0182 27.7679 50.9219 28.2002 50.9219C28.7445 50.9219 29.1885 51.0924 29.5322 51.4336C29.8786 51.7747 30.0518 52.2891 30.0518 52.9766V57H28.8838V53.0859C28.8838 52.6797 28.7731 52.3854 28.5518 52.2031C28.3304 52.0208 28.0661 51.9297 27.7588 51.9297C27.3786 51.9297 27.083 52.0469 26.8721 52.2812C26.6611 52.513 26.5557 52.8112 26.5557 53.1758V57H25.3916V53.0117C25.3916 52.6862 25.29 52.4245 25.0869 52.2266C24.8838 52.0286 24.6195 51.9297 24.2939 51.9297C24.0726 51.9297 23.8682 51.9883 23.6807 52.1055C23.4958 52.2201 23.346 52.3802 23.2314 52.5859C23.1195 52.7917 23.0635 53.0299 23.0635 53.3008V57H21.8955ZM31.6172 57V51H32.7461V51.9531H32.8086C32.918 51.6302 33.1107 51.3763 33.3867 51.1914C33.6654 51.0039 33.9805 50.9102 34.332 50.9102C34.4049 50.9102 34.4909 50.9128 34.5898 50.918C34.6914 50.9232 34.7708 50.9297 34.8281 50.9375V52.0547C34.7813 52.0417 34.6979 52.0273 34.5781 52.0117C34.4583 51.9935 34.3385 51.9844 34.2188 51.9844C33.9427 51.9844 33.6966 52.043 33.4805 52.1602C33.2669 52.2747 33.0977 52.4349 32.9727 52.6406C32.8477 52.8437 32.7852 53.0755 32.7852 53.3359V57H31.6172ZM37.5313 57.1328C37.151 57.1328 36.8073 57.0625 36.5 56.9219C36.1927 56.7786 35.9492 56.5716 35.7695 56.3008C35.5924 56.0299 35.5039 55.6979 35.5039 55.3047C35.5039 54.9661 35.569 54.6875 35.6992 54.4687C35.8294 54.25 36.0052 54.0768 36.2266 53.9492C36.4479 53.8216 36.6953 53.7253 36.9688 53.6602C37.2422 53.5951 37.5208 53.5456 37.8047 53.5117C38.1641 53.4701 38.4557 53.4362 38.6797 53.4102C38.9036 53.3815 39.0664 53.3359 39.168 53.2734C39.2695 53.2109 39.3203 53.1094 39.3203 52.9687V52.9414C39.3203 52.6003 39.224 52.3359 39.0313 52.1484C38.8411 51.9609 38.5573 51.8672 38.1797 51.8672C37.7865 51.8672 37.4766 51.9544 37.25 52.1289C37.026 52.3008 36.8711 52.4922 36.7852 52.7031L35.6875 52.4531C35.8177 52.0885 36.0078 51.7943 36.2578 51.5703C36.5104 51.3437 36.8008 51.1797 37.1289 51.0781C37.457 50.974 37.8021 50.9219 38.1641 50.9219C38.4036 50.9219 38.6576 50.9505 38.9258 51.0078C39.1966 51.0625 39.4492 51.1641 39.6836 51.3125C39.9206 51.4609 40.1146 51.6732 40.2656 51.9492C40.4167 52.2227 40.4922 52.5781 40.4922 53.0156V57H39.3516V56.1797H39.3047C39.2292 56.3307 39.1159 56.4792 38.9648 56.625C38.8138 56.7708 38.6198 56.8919 38.3828 56.9883C38.1458 57.0846 37.862 57.1328 37.5313 57.1328ZM37.7852 56.1953C38.1081 56.1953 38.3841 56.1315 38.6133 56.0039C38.8451 55.8763 39.0208 55.7096 39.1406 55.5039C39.263 55.2956 39.3242 55.0729 39.3242 54.8359V54.0625C39.2826 54.1042 39.2018 54.1432 39.082 54.1797C38.9648 54.2135 38.8307 54.2435 38.6797 54.2695C38.5286 54.293 38.3815 54.3151 38.2383 54.3359C38.0951 54.3542 37.9753 54.3698 37.8789 54.3828C37.6523 54.4115 37.4453 54.4596 37.2578 54.5273C37.0729 54.5951 36.9245 54.6927 36.8125 54.8203C36.7031 54.9453 36.6484 55.112 36.6484 55.3203C36.6484 55.6094 36.7552 55.8281 36.9688 55.9766C37.1823 56.1224 37.4544 56.1953 37.7852 56.1953ZM43.2158 53.4375V57H42.0479V49H43.2002V51.9766H43.2744C43.415 51.6536 43.6299 51.3971 43.9189 51.207C44.208 51.0169 44.5856 50.9219 45.0518 50.9219C45.4632 50.9219 45.8226 51.0065 46.1299 51.1758C46.4398 51.3451 46.6794 51.5977 46.8486 51.9336C47.0205 52.2669 47.1064 52.6836 47.1064 53.1836V57H45.9385V53.3242C45.9385 52.8841 45.8252 52.543 45.5986 52.3008C45.3721 52.056 45.057 51.9336 44.6533 51.9336C44.3773 51.9336 44.1299 51.9922 43.9111 52.1094C43.695 52.2266 43.5244 52.3984 43.3994 52.625C43.277 52.849 43.2158 53.1198 43.2158 53.4375ZM58.127 49V57H57.0176L52.9512 51.1328H52.877V57H51.6699V49H52.7871L56.8574 54.875H56.9316V49H58.127ZM62.3213 57.1211C61.7588 57.1211 61.2679 56.9922 60.8486 56.7344C60.4294 56.4766 60.1038 56.1159 59.8721 55.6523C59.6403 55.1888 59.5244 54.6471 59.5244 54.0273C59.5244 53.4049 59.6403 52.8607 59.8721 52.3945C60.1038 51.9284 60.4294 51.5664 60.8486 51.3086C61.2679 51.0508 61.7588 50.9219 62.3213 50.9219C62.8838 50.9219 63.3747 51.0508 63.7939 51.3086C64.2132 51.5664 64.5387 51.9284 64.7705 52.3945C65.0023 52.8607 65.1182 53.4049 65.1182 54.0273C65.1182 54.6471 65.0023 55.1888 64.7705 55.6523C64.5387 56.1159 64.2132 56.4766 63.7939 56.7344C63.3747 56.9922 62.8838 57.1211 62.3213 57.1211ZM62.3252 56.1406C62.6898 56.1406 62.9919 56.0443 63.2314 55.8516C63.471 55.6589 63.6481 55.4023 63.7627 55.082C63.8799 54.7617 63.9385 54.4089 63.9385 54.0234C63.9385 53.6406 63.8799 53.2891 63.7627 52.9687C63.6481 52.6458 63.471 52.3867 63.2314 52.1914C62.9919 51.9961 62.6898 51.8984 62.3252 51.8984C61.958 51.8984 61.6533 51.9961 61.4111 52.1914C61.1715 52.3867 60.9932 52.6458 60.876 52.9687C60.7614 53.2891 60.7041 53.6406 60.7041 54.0234C60.7041 54.4089 60.7614 54.7617 60.876 55.082C60.9932 55.4023 61.1715 55.6589 61.4111 55.8516C61.6533 56.0443 61.958 56.1406 62.3252 56.1406ZM67.54 57L65.7744 51H66.9814L68.1572 55.4062H68.2158L69.3955 51H70.6025L71.7744 55.3867H71.833L73.001 51H74.208L72.4463 57H71.2549L70.0361 52.668H69.9463L68.7275 57H67.54ZM78.3213 57V49H79.5283V52.4766H83.5166V49H84.7275V57H83.5166V53.5117H79.5283V57H78.3213ZM88.1377 57.1328C87.7575 57.1328 87.4137 57.0625 87.1064 56.9219C86.7992 56.7786 86.5557 56.5716 86.376 56.3008C86.1989 56.0299 86.1104 55.6979 86.1104 55.3047C86.1104 54.9661 86.1755 54.6875 86.3057 54.4687C86.4359 54.25 86.6117 54.0768 86.833 53.9492C87.0544 53.8216 87.3018 53.7253 87.5752 53.6602C87.8486 53.5951 88.1273 53.5456 88.4111 53.5117C88.7705 53.4701 89.0622 53.4362 89.2861 53.4102C89.5101 53.3815 89.6729 53.3359 89.7744 53.2734C89.876 53.2109 89.9268 53.1094 89.9268 52.9687V52.9414C89.9268 52.6003 89.8304 52.3359 89.6377 52.1484C89.4476 51.9609 89.1637 51.8672 88.7861 51.8672C88.3929 51.8672 88.083 51.9544 87.8564 52.1289C87.6325 52.3008 87.4775 52.4922 87.3916 52.7031L86.2939 52.4531C86.4242 52.0885 86.6143 51.7943 86.8643 51.5703C87.1169 51.3437 87.4072 51.1797 87.7354 51.0781C88.0635 50.974 88.4085 50.9219 88.7705 50.9219C89.0101 50.9219 89.264 50.9505 89.5322 51.0078C89.8031 51.0625 90.0557 51.1641 90.29 51.3125C90.527 51.4609 90.721 51.6732 90.8721 51.9492C91.0231 52.2227 91.0986 52.5781 91.0986 53.0156V57H89.958V56.1797H89.9111C89.8356 56.3307 89.7223 56.4792 89.5713 56.625C89.4202 56.7708 89.2262 56.8919 88.9893 56.9883C88.7523 57.0846 88.4684 57.1328 88.1377 57.1328ZM88.3916 56.1953C88.7145 56.1953 88.9906 56.1315 89.2197 56.0039C89.4515 55.8763 89.6273 55.7096 89.7471 55.5039C89.8695 55.2956 89.9307 55.0729 89.9307 54.8359V54.0625C89.889 54.1042 89.8083 54.1432 89.6885 54.1797C89.5713 54.2135 89.4372 54.2435 89.2861 54.2695C89.1351 54.293 88.988 54.3151 88.8447 54.3359C88.7015 54.3542 88.5817 54.3698 88.4854 54.3828C88.2588 54.4115 88.0518 54.4596 87.8643 54.5273C87.6794 54.5951 87.5309 54.6927 87.4189 54.8203C87.3096 54.9453 87.2549 55.112 87.2549 55.3203C87.2549 55.6094 87.3617 55.8281 87.5752 55.9766C87.7887 56.1224 88.0609 56.1953 88.3916 56.1953ZM97.5723 51L95.3965 57H94.1465L91.9668 51H93.2207L94.7402 55.6172H94.8027L96.3184 51H97.5723ZM101.052 57.1211C100.461 57.1211 99.9515 56.9948 99.5244 56.7422C99.0999 56.487 98.7718 56.1289 98.54 55.668C98.3109 55.2044 98.1963 54.6615 98.1963 54.0391C98.1963 53.4245 98.3109 52.8828 98.54 52.4141C98.7718 51.9453 99.0947 51.5794 99.5088 51.3164C99.9255 51.0534 100.412 50.9219 100.97 50.9219C101.308 50.9219 101.636 50.9779 101.954 51.0898C102.272 51.2018 102.557 51.3776 102.81 51.6172C103.062 51.8568 103.261 52.168 103.407 52.5508C103.553 52.931 103.626 53.3932 103.626 53.9375V54.3516H98.8564V53.4766H102.481C102.481 53.1693 102.419 52.8971 102.294 52.6602C102.169 52.4206 101.993 52.2318 101.767 52.0937C101.543 51.9557 101.28 51.8867 100.978 51.8867C100.649 51.8867 100.363 51.9674 100.118 52.1289C99.876 52.2878 99.6885 52.4961 99.5557 52.7539C99.4255 53.0091 99.3604 53.2865 99.3604 53.5859V54.2695C99.3604 54.6706 99.4307 55.0117 99.5713 55.293C99.7145 55.5742 99.9137 55.7891 100.169 55.9375C100.424 56.0833 100.722 56.1562 101.063 56.1562C101.285 56.1562 101.487 56.125 101.669 56.0625C101.851 55.9974 102.009 55.901 102.142 55.7734C102.274 55.6458 102.376 55.4883 102.446 55.3008L103.552 55.5C103.463 55.8255 103.304 56.1107 103.075 56.3555C102.849 56.5977 102.563 56.7865 102.22 56.9219C101.879 57.0547 101.489 57.1211 101.052 57.1211ZM107.927 57V49H112.888V50.0391H109.134V52.4766H112.532V53.5117H109.134V57H107.927ZM117.703 54.5117V51H118.875V57H117.727V55.9609H117.664C117.526 56.2813 117.305 56.5482 117 56.7617C116.698 56.9727 116.322 57.0781 115.871 57.0781C115.486 57.0781 115.145 56.9935 114.848 56.8242C114.553 56.6523 114.322 56.3984 114.152 56.0625C113.986 55.7266 113.902 55.3112 113.902 54.8164V51H115.07V54.6758C115.07 55.0846 115.184 55.4102 115.41 55.6523C115.637 55.8945 115.931 56.0156 116.293 56.0156C116.512 56.0156 116.729 55.9609 116.945 55.8516C117.164 55.7422 117.345 55.5768 117.488 55.3555C117.634 55.1341 117.706 54.8529 117.703 54.5117ZM121.612 53.4375V57H120.444V51H121.565V51.9766H121.64C121.778 51.6589 121.994 51.4036 122.288 51.2109C122.585 51.0182 122.959 50.9219 123.409 50.9219C123.818 50.9219 124.176 51.0078 124.483 51.1797C124.791 51.349 125.029 51.6016 125.198 51.9375C125.368 52.2734 125.452 52.6888 125.452 53.1836V57H124.284V53.3242C124.284 52.8893 124.171 52.5495 123.944 52.3047C123.718 52.0573 123.407 51.9336 123.011 51.9336C122.74 51.9336 122.499 51.9922 122.288 52.1094C122.08 52.2266 121.914 52.3984 121.792 52.625C121.672 52.849 121.612 53.1198 121.612 53.4375Z" fill="white"/>
</svg>
